<svg width="121" height="25" viewBox="0 0 121 25" fill="none" xmlns="http://www.w3.org/2000/svg">
<path d="M6.85736 16.5L6.85736 14.1349L2.80054 12.492L6.85736 10.8627L6.85736 8.5L2.04702e-05 11.4323L2.02837e-05 13.566L6.85736 16.5Z" fill="#4343FF"/>
<path d="M23.6094 17H20.4254L17.1934 13.32H16.4254V17H13.7854V6.28H19.2094C20.372 6.28 21.3054 6.60533 22.0094 7.256C22.7134 7.896 23.0654 8.73867 23.0654 9.784C23.0654 10.6587 22.8147 11.4 22.3134 12.008C21.812 12.6053 21.124 13 20.2494 13.192L23.6094 17ZM16.4254 11.112H18.9214C19.3907 11.112 19.764 10.9947 20.0414 10.76C20.3294 10.5253 20.4734 10.2107 20.4734 9.816C20.4734 9.432 20.3294 9.12267 20.0414 8.888C19.764 8.65333 19.3907 8.536 18.9214 8.536H16.4254V11.112ZM32.1417 12.984V13.64H26.2537C26.3604 14.12 26.5684 14.4987 26.8777 14.776C27.1871 15.0533 27.5551 15.192 27.9817 15.192C28.7817 15.192 29.3524 14.8827 29.6937 14.264L31.9657 14.728C31.6244 15.56 31.1071 16.1893 30.4137 16.616C29.7311 17.032 28.9204 17.24 27.9817 17.24C26.7977 17.24 25.7951 16.8453 24.9737 16.056C24.1524 15.256 23.7417 14.232 23.7417 12.984C23.7417 11.7467 24.1524 10.728 24.9737 9.928C25.7951 9.128 26.8031 8.728 27.9977 8.728C29.1604 8.728 30.1364 9.11733 30.9257 9.896C31.7151 10.6747 32.1204 11.704 32.1417 12.984ZM27.9977 10.808C27.6244 10.808 27.2777 10.92 26.9577 11.144C26.6377 11.368 26.4191 11.6773 26.3017 12.072H29.6137C29.4964 11.656 29.2937 11.3413 29.0057 11.128C28.7177 10.9147 28.3817 10.808 27.9977 10.808ZM41.9209 8.968V17H39.3609V16.36C38.7102 16.9467 37.8782 17.24 36.8649 17.24C35.7769 17.24 34.8489 16.8453 34.0809 16.056C33.3235 15.256 32.9449 14.232 32.9449 12.984C32.9449 11.7467 33.3235 10.728 34.0809 9.928C34.8489 9.128 35.7769 8.728 36.8649 8.728C37.8782 8.728 38.7102 9.02133 39.3609 9.608V8.968H41.9209ZM37.3929 15.064C37.9262 15.064 38.3849 14.872 38.7689 14.488C39.1635 14.0933 39.3609 13.592 39.3609 12.984C39.3609 12.3867 39.1635 11.8907 38.7689 11.496C38.3849 11.1013 37.9262 10.904 37.3929 10.904C36.8275 10.904 36.3635 11.1013 36.0009 11.496C35.6382 11.88 35.4569 12.376 35.4569 12.984C35.4569 13.6027 35.6382 14.104 36.0009 14.488C36.3635 14.872 36.8275 15.064 37.3929 15.064ZM52.2177 5.48V17H49.6577V16.36C49.0071 16.9467 48.1751 17.24 47.1617 17.24C46.0737 17.24 45.1457 16.8453 44.3777 16.056C43.6204 15.256 43.2417 14.232 43.2417 12.984C43.2417 11.7467 43.6204 10.728 44.3777 9.928C45.1457 9.128 46.0737 8.728 47.1617 8.728C48.1751 8.728 49.0071 9.02133 49.6577 9.608V5.48H52.2177ZM47.6897 15.064C48.2231 15.064 48.6817 14.872 49.0657 14.488C49.4604 14.0933 49.6577 13.592 49.6577 12.984C49.6577 12.3867 49.4604 11.8907 49.0657 11.496C48.6817 11.1013 48.2231 10.904 47.6897 10.904C47.1244 10.904 46.6604 11.1013 46.2977 11.496C45.9351 11.88 45.7537 12.376 45.7537 12.984C45.7537 13.6027 45.9351 14.104 46.2977 14.488C46.6604 14.872 47.1244 15.064 47.6897 15.064ZM70.1534 6.28V17H67.5934V11.656L64.7934 17H63.1614L60.3454 11.624V17H57.7854V6.28H60.3774L63.9774 12.92L67.5774 6.28H70.1534ZM75.9241 8.76C77.1508 8.76 78.1908 9.15467 79.0441 9.944C79.8974 10.7333 80.3241 11.7467 80.3241 12.984C80.3241 14.232 79.8974 15.2507 79.0441 16.04C78.1908 16.8293 77.1508 17.224 75.9241 17.224C74.6761 17.224 73.6201 16.8293 72.7561 16.04C71.9028 15.2507 71.4761 14.232 71.4761 12.984C71.4761 11.7467 71.9028 10.7333 72.7561 9.944C73.6201 9.15467 74.6761 8.76 75.9241 8.76ZM75.9241 15.064C76.4468 15.064 76.9001 14.872 77.2841 14.488C77.6681 14.0933 77.8601 13.592 77.8601 12.984C77.8601 12.376 77.6628 11.88 77.2681 11.496C76.8841 11.1013 76.4361 10.904 75.9241 10.904C75.3908 10.904 74.9268 11.1013 74.5321 11.496C74.1374 11.88 73.9401 12.376 73.9401 12.984C73.9401 13.592 74.1321 14.0933 74.5161 14.488C74.9108 14.872 75.3801 15.064 75.9241 15.064ZM86.9727 8.856C87.1861 8.856 87.3781 8.87733 87.5487 8.92L87.4367 11.48H86.9727C85.1274 11.48 84.2047 12.4827 84.2047 14.488V17H81.6447V8.968H84.2047V10.504C84.8661 9.40533 85.7887 8.856 86.9727 8.856ZM96.4542 12.984V13.64H90.5662C90.6729 14.12 90.8809 14.4987 91.1902 14.776C91.4996 15.0533 91.8676 15.192 92.2942 15.192C93.0942 15.192 93.6649 14.8827 94.0062 14.264L96.2782 14.728C95.9369 15.56 95.4196 16.1893 94.7262 16.616C94.0436 17.032 93.2329 17.24 92.2942 17.24C91.1102 17.24 90.1076 16.8453 89.2862 16.056C88.4649 15.256 88.0542 14.232 88.0542 12.984C88.0542 11.7467 88.4649 10.728 89.2862 9.928C90.1076 9.128 91.1156 8.728 92.3102 8.728C93.4729 8.728 94.4489 9.11733 95.2382 9.896C96.0276 10.6747 96.4329 11.704 96.4542 12.984ZM92.3102 10.808C91.9369 10.808 91.5902 10.92 91.2702 11.144C90.9502 11.368 90.7316 11.6773 90.6142 12.072H93.9262C93.8089 11.656 93.6062 11.3413 93.3182 11.128C93.0302 10.9147 92.6942 10.808 92.3102 10.808ZM106.778 6.626L102.746 18.008H100.926L104.958 6.626H106.778Z" fill="#4343FF"/>
<path d="M113.857 8.5V10.8651L117.914 12.508L113.857 14.1373V16.5L120.715 13.5677V11.434L113.857 8.5Z" fill="#4343FF"/>
</svg>
